ply
format ascii 1.0
element vertex 401
property float x
property float y
property float z
element face 766
property list uchar int vertex_indices
end_header
282.919 208.184 486.526
283.23 208.184 485.526
283.23 207.936 486.526
284.324 207.709 486.526
284.324 208.184 488.412
285.417 208.184 488.412
284.324 208.731 491.659
285.417 208.731 491.659
285.417 209.278 493.199
286.511 209.278 492.531
286.511 210.372 494.006
287.605 210.372 493.471
287.605 211.466 495.634
288.699 211.466 495.081
287.605 211.742 496.793
288.699 212.211 496.793
288.699 212.559 497.874
288.939 212.559 496.793
288.699 213.653 499.035
289.073 213.653 496.793
288.699 214.747 498.615
288.964 214.747 496.793
288.699 215.841 497.697
288.811 215.841 496.793
288.699 216.21 496.793
288.699 215.841 495.433
288.446 216.934 496.793
288.312 215.841 491.659
287.713 216.934 491.659
287.79 215.841 486.526
287.605 216.053 486.526
287.605 216.934 484.486
286.511 216.934 484.993
287.605 218.028 483.758
286.511 218.028 483.841
287.605 219.122 483.528
286.511 219.122 483.528
287.605 220.216 481.725
286.511 220.216 481.725
287.605 220.283 481.392
286.511 220.283 481.392
284.324 208.184 484.993
284.324 209.278 483.841
285.417 209.278 483.841
285.417 210.372 483.528
286.511 210.372 483.595
286.511 211.466 481.725
287.605 211.466 481.725
287.605 211.533 481.392
288.699 211.533 481.392
285.417 207.709 486.526
285.417 208.184 484.993
286.511 209.278 484.044
287.605 210.372 483.758
288.699 211.466 481.725
289.792 211.762 481.392
286.511 207.759 486.526
286.511 208.184 485.189
287.605 209.278 484.629
288.699 210.372 483.841
289.792 211.466 483.528
290.781 212.559 481.392
286.511 208.184 487.978
287.605 208.148 486.526
287.605 208.184 486.383
288.699 209.278 485.526
289.792 210.372 485.909
290.155 211.466 486.526
290.388 212.559 486.526
290.225 213.653 486.526
289.947 212.559 491.659
289.792 213.653 489.237
289.792 212.925 491.659
289.493 213.653 491.659
287.605 208.184 486.646
287.605 209.278 489.632
286.511 208.95 491.659
287.058 209.278 491.659
287.649 208.184 486.526
288.699 208.99 486.526
288.699 209.278 487.797
289.009 209.278 486.526
289.792 210.128 486.526
281.92 209.278 486.526
282.136 209.278 485.436
282.136 208.901 486.526
282.153 209.278 491.659
283.23 208.757 491.659
283.23 209.278 493.199
284.324 209.278 493.199
284.324 210.372 494.226
285.417 210.372 494.226
285.417 211.466 495.44
286.511 211.466 495.77
285.417 211.795 496.793
286.511 211.683 496.793
286.511 212.342 501.927
287.605 212.559 501.647
283.23 209.278 483.841
284.324 210.372 483.528
285.417 211.466 482.251
286.511 211.533 481.392
282.136 210.372 484.065
283.23 210.372 483.528
281.372 210.372 486.526
281.042 211.466 485.71
282.136 211.466 483.595
282.136 212.559 483.528
283.23 212.559 483.18
283.23 213.653 482.251
284.168 212.559 481.392
283.445 213.653 481.392
289.898 210.372 486.526
290.039 211.466 491.659
280.901 211.466 486.526
281.042 211.052 486.526
281.599 210.372 491.659
282.136 209.278 491.495
283.23 211.466 483.528
284.324 211.466 483.18
285.417 211.68 481.392
281.042 212.559 485.332
280.824 212.559 486.526
281.042 213.653 485.332
282.136 213.653 483.528
282.136 214.747 483.595
283.23 214.747 481.725
283.23 215.841 483.193
283.301 214.747 481.392
283.563 215.841 481.392
284.324 212.404 481.392
280.824 213.653 486.526
281.042 214.747 485.71
282.136 215.841 485.528
282.136 216.029 486.526
283.23 216.409 486.526
282.136 216.596 491.659
283.23 216.934 489.423
282.618 216.934 491.659
283.23 217.35 491.659
283.23 218.028 494.226
284.324 218.028 493.472
283.23 218.707 496.793
284.324 219.062 496.793
284.324 219.122 497.153
285.387 219.122 501.927
284.324 219.669 501.927
285.051 219.122 507.06
284.324 219.81 507.06
284.324 219.122 509.683
283.434 219.122 512.194
283.777 218.028 512.194
283.23 219.122 512.72
283.23 218.028 513.733
282.136 218.028 514.76
282.136 216.934 514.76
281.042 216.934 514.692
281.042 215.841 512.883
279.949 216.934 514.527
279.949 215.915 512.194
278.855 216.374 512.194
278.855 216.619 507.06
278.295 216.934 512.194
278.58 216.934 507.06
278.308 218.028 507.06
278.855 218.028 504.493
278.855 219.122 504.87
279.496 218.028 501.927
279.778 219.122 501.927
279.949 219.122 501.4
279.949 219.293 501.927
281.042 219.122 500.171
281.042 219.6 501.927
282.136 219.122 499.637
282.136 219.649 501.927
283.23 219.122 498.666
283.23 219.728 501.927
290.886 212.767 481.392
290.886 213.653 483.325
291.237 213.653 481.392
290.886 214.747 483.457
289.792 214.747 484.805
290.886 215.841 483.528
289.792 215.841 483.595
290.886 216.934 483.528
289.792 216.934 483.528
290.886 218.028 483.528
289.792 218.028 483.528
290.886 219.122 483.18
289.792 219.122 483.528
289.792 220.216 481.725
288.699 219.122 483.528
288.699 220.216 481.725
280.901 214.747 486.526
281.042 215.057 486.526
281.769 215.841 486.526
289.792 214.212 486.526
289.134 214.747 486.526
288.699 215.841 484.399
288.699 215.14 486.526
291.839 214.747 481.392
291.98 215.841 483.18
291.98 216.934 483.528
291.98 218.028 483.18
288.699 216.934 483.758
288.699 218.028 483.595
291.98 214.903 481.392
292.743 215.841 481.392
293.074 216.934 481.725
293.074 216.653 481.392
293.141 216.934 481.392
284.069 216.934 481.392
284.324 216.781 486.526
284.324 216.934 484.765
285.417 216.686 486.526
285.417 216.934 485.526
286.511 216.459 486.526
284.324 216.934 487.485
285.417 216.934 487.797
284.324 217.531 491.659
285.417 217.507 491.659
285.417 218.028 493.495
286.511 218.028 493.973
285.417 219.004 496.793
286.511 218.74 496.793
285.417 219.099 501.927
286.459 218.028 501.927
285.613 218.028 507.06
285.861 216.934 507.06
285.417 218.028 507.908
285.417 216.934 508.488
284.324 216.934 510.654
284.324 215.841 510.163
283.376 215.841 512.194
283.23 215.733 512.194
283.23 215.841 512.558
282.136 215.574 512.194
282.136 215.841 513.353
281.042 215.699 512.194
280.214 215.841 512.194
279.949 215.841 510.146
279.837 215.841 507.06
278.855 216.934 505.707
279.949 215.841 505.893
279.641 216.934 501.927
279.949 216.35 501.927
279.949 216.934 500.767
280.262 215.841 501.927
281.042 215.841 498.208
280.993 214.747 501.927
281.042 214.747 500.921
281.042 214.656 501.927
281.765 213.653 501.927
282.136 213.653 503.18
282.136 213.282 501.927
283.23 213.653 504.838
283.23 212.794 501.927
284.324 213.653 505.064
284.324 212.622 501.927
285.417 212.559 502.616
284.589 212.559 501.927
285.417 212.418 501.927
284.324 212.134 496.793
284.256 218.028 481.392
284.324 218.028 481.792
285.417 218.028 483.841
285.417 219.122 483.18
293.074 217.216 481.392
292.743 218.028 481.392
291.98 218.966 481.392
291.824 219.122 481.392
290.886 219.885 481.392
284.324 218.309 481.392
284.654 219.122 481.392
285.417 219.885 481.392
286.23 220.216 481.392
290.074 220.216 481.392
289.792 220.283 481.392
288.699 220.283 481.392
283.23 208.184 487.797
287.605 209.606 491.659
282.136 209.293 491.659
288.699 209.851 491.659
288.699 210.372 493.199
289.792 210.372 490.083
289.679 210.372 491.659
289.792 210.531 491.659
289.792 211.466 492.909
289.792 212.559 492.61
281 211.466 491.659
281.042 211.377 491.659
282.136 210.372 493.372
280.824 212.559 491.659
281.042 211.466 491.866
281.042 212.559 492.913
282.136 212.559 495.645
281.042 213.653 493.739
281.614 213.653 496.793
281.22 214.747 496.793
280.795 213.653 491.659
280.887 214.747 491.659
281.042 215.058 491.659
281.042 214.747 494.226
281.469 215.841 491.659
281.264 215.841 496.793
281.042 216.934 498.267
281.042 218.028 498.605
279.949 218.028 500.387
288.971 214.747 491.659
288.699 215.259 491.659
286.511 216.934 488.412
287.605 216.934 490.715
286.511 217.481 491.659
287.605 217.062 491.659
287.656 218.028 496.793
287.713 216.934 501.927
288.057 215.841 501.927
287.605 216.934 502.291
287.605 215.841 503.466
286.511 215.841 505.248
286.511 214.747 504.714
285.417 214.747 505.87
285.417 213.653 504.649
283.23 210.372 494.226
284.324 211.466 494.802
282.136 211.466 494.226
283.23 211.466 494.542
283.048 212.559 496.793
282.136 212.985 496.793
283.23 212.559 497.874
284.324 212.559 501.285
283.23 212.481 496.793
282.136 216.934 493.328
281.446 216.934 496.793
282.136 218.028 496.064
281.864 218.028 496.793
282.136 218.244 496.793
287.605 218.028 496.471
287.605 218.1 496.793
287.605 218.028 497.115
287.605 217.062 501.927
286.511 216.934 504.77
285.745 215.841 507.06
285.417 215.389 507.06
285.417 215.841 507.931
284.823 214.747 507.06
284.324 214.747 508.14
284.324 214.377 507.06
283.23 214.3 507.06
286.511 212.559 502.949
286.511 213.653 504.493
287.423 212.559 501.927
287.605 212.673 501.927
287.605 213.653 503.466
288.057 213.653 501.927
287.605 214.747 503.466
288.057 214.747 501.927
286.511 217.964 501.927
286.511 218.028 501.527
283.23 214.747 508.66
282.255 214.747 507.06
282.136 214.747 506.799
281.042 214.747 502.359
285.417 218.465 507.06
284.324 218.028 510.607
283.777 216.934 512.194
283.23 216.934 513.733
279.949 215.766 507.06
281.042 215.172 507.06
282.136 214.789 507.06
278.388 219.122 507.06
278.855 220.039 507.06
279.949 220.216 505.24
281.042 220.216 505.238
279.949 220.52 507.06
281.042 220.481 507.06
281.042 220.258 512.194
282.136 220.328 507.06
281.15 220.216 512.194
282.136 220.216 508.311
282.136 219.739 512.194
283.23 220.209 507.06
283.23 219.293 512.194
279.081 220.216 507.06
278.855 220.057 512.194
279.152 220.216 512.194
278.855 219.122 514.185
279.949 220.216 513.216
279.949 219.122 514.76
281.042 220.216 512.392
281.042 219.122 514.54
282.136 219.122 514.005
281.042 218.028 514.76
282.136 220.216 506.157
283.175 220.216 507.06
279.949 220.433 512.194
277.961 218.028 512.194
278.855 216.934 513.848
278.855 218.028 514.445
279.949 218.028 514.76
278.186 219.122 512.194
3 0 1 2
3 2 1 3
3 2 3 4
3 4 3 5
3 4 5 6
3 6 5 7
3 6 7 8
3 8 7 9
3 8 9 10
3 10 9 11
3 10 11 12
3 12 11 13
3 12 13 14
3 14 13 15
3 14 15 16
3 16 15 17
3 16 17 18
3 18 17 19
3 18 19 20
3 20 19 21
3 20 21 22
3 22 21 23
3 22 23 24
3 24 23 25
3 24 25 26
3 26 25 27
3 26 27 28
3 28 27 29
3 28 29 30
3 30 29 31
3 30 31 32
3 32 31 33
3 32 33 34
3 34 33 35
3 34 35 36
3 36 35 37
3 36 37 38
3 38 37 39
3 38 39 40
3 3 1 41
3 41 1 42
3 41 42 43
3 43 42 44
3 43 44 45
3 45 44 46
3 45 46 47
3 47 46 48
3 47 48 49
3 50 41 51
3 51 41 43
3 51 43 52
3 52 43 45
3 52 45 53
3 53 45 47
3 53 47 54
3 54 47 49
3 54 49 55
3 41 50 3
3 3 50 5
3 56 51 57
3 57 51 52
3 57 52 58
3 58 52 53
3 58 53 59
3 59 53 54
3 59 54 60
3 60 54 55
3 60 55 61
3 51 56 50
3 50 56 62
3 50 62 5
3 5 62 7
3 63 57 64
3 64 57 58
3 64 58 65
3 65 58 59
3 65 59 66
3 66 59 60
3 66 60 67
3 67 60 61
3 67 61 68
3 68 61 69
3 68 69 70
3 70 69 71
3 70 71 72
3 72 71 73
3 72 73 17
3 17 73 19
3 57 63 56
3 56 63 74
3 56 74 62
3 62 74 75
3 62 75 76
3 76 75 77
3 76 77 9
3 9 77 11
3 63 64 78
3 78 64 79
3 78 79 80
3 80 79 81
3 80 81 82
3 82 81 65
3 82 65 66
3 83 84 85
3 85 84 0
3 85 0 86
3 86 0 87
3 86 87 88
3 88 87 89
3 88 89 90
3 90 89 91
3 90 91 92
3 92 91 93
3 92 93 94
3 94 93 95
3 94 95 96
3 96 95 14
3 96 14 97
3 97 14 16
3 97 16 18
3 0 84 1
3 1 84 98
3 1 98 42
3 42 98 99
3 42 99 44
3 44 99 100
3 44 100 46
3 46 100 101
3 46 101 48
3 64 65 79
3 79 65 81
3 83 102 84
3 84 102 103
3 84 103 98
3 98 103 99
3 83 104 102
3 102 104 105
3 102 105 106
3 106 105 107
3 106 107 108
3 108 107 109
3 108 109 110
3 110 109 111
3 82 66 112
3 112 66 67
3 112 67 113
3 113 67 68
3 113 68 70
3 114 105 115
3 115 105 104
3 115 104 116
3 116 104 83
3 116 83 117
3 117 83 85
3 117 85 86
3 103 102 118
3 118 102 106
3 118 106 108
3 99 103 119
3 119 103 118
3 119 118 108
3 99 119 100
3 100 119 120
3 100 120 101
3 114 121 105
3 105 121 107
3 114 122 121
3 121 122 123
3 121 123 124
3 124 123 125
3 124 125 126
3 126 125 127
3 126 127 128
3 128 127 129
3 110 130 108
3 108 130 119
3 120 119 130
3 122 131 123
3 123 131 132
3 123 132 125
3 125 132 133
3 125 133 127
3 127 133 134
3 127 134 135
3 135 134 136
3 135 136 137
3 137 136 138
3 137 138 139
3 139 138 140
3 139 140 141
3 141 140 142
3 141 142 143
3 143 142 144
3 143 144 145
3 145 144 146
3 145 146 147
3 147 146 148
3 147 148 149
3 149 148 150
3 149 150 151
3 151 150 152
3 151 152 153
3 153 152 154
3 153 154 155
3 155 154 156
3 155 156 157
3 157 156 158
3 157 158 159
3 159 158 160
3 159 160 161
3 161 160 162
3 161 162 163
3 163 162 164
3 163 164 165
3 165 164 166
3 165 166 167
3 167 166 168
3 167 168 169
3 169 168 170
3 169 170 171
3 171 170 172
3 171 172 173
3 173 172 174
3 173 174 175
3 175 174 176
3 175 176 144
3 144 176 146
3 121 124 107
3 107 124 109
3 177 178 61
3 61 178 69
3 177 179 178
3 178 179 180
3 178 180 181
3 181 180 182
3 181 182 183
3 183 182 184
3 183 184 185
3 185 184 186
3 185 186 187
3 187 186 188
3 187 188 189
3 189 188 190
3 189 190 191
3 191 190 192
3 191 192 35
3 35 192 37
3 131 193 132
3 132 193 194
3 132 194 133
3 133 194 195
3 133 195 134
3 134 195 136
3 124 126 109
3 109 126 111
3 111 126 128
3 196 181 197
3 197 181 198
3 197 198 199
3 199 198 29
3 199 29 27
3 196 69 181
3 181 69 178
3 179 200 180
3 180 200 201
3 180 201 182
3 182 201 202
3 182 202 184
3 184 202 203
3 184 203 186
3 186 203 188
3 181 183 198
3 198 183 185
3 198 185 204
3 204 185 187
3 204 187 205
3 205 187 189
3 205 189 191
3 200 206 201
3 201 206 207
3 201 207 208
3 208 207 209
3 208 209 210
3 129 127 211
3 211 127 212
3 211 212 213
3 213 212 214
3 213 214 215
3 215 214 216
3 215 216 32
3 32 216 30
3 127 135 212
3 212 135 217
3 212 217 218
3 218 217 219
3 218 219 220
3 220 219 221
3 220 221 222
3 222 221 223
3 222 223 224
3 224 223 225
3 224 225 226
3 226 225 227
3 226 227 228
3 228 227 229
3 228 229 230
3 230 229 231
3 230 231 232
3 232 231 233
3 232 233 234
3 234 233 235
3 234 235 236
3 236 235 237
3 236 237 238
3 238 237 157
3 238 157 239
3 239 157 159
3 239 159 240
3 240 159 161
3 240 161 241
3 241 161 242
3 241 242 243
3 243 242 244
3 243 244 245
3 245 244 246
3 245 246 247
3 247 246 248
3 247 248 249
3 249 248 250
3 249 250 251
3 251 250 252
3 251 252 253
3 253 252 254
3 253 254 255
3 255 254 256
3 255 256 257
3 257 256 258
3 257 258 259
3 259 258 260
3 259 260 261
3 261 260 262
3 261 262 94
3 94 262 92
3 29 198 31
3 31 198 204
3 31 204 205
3 201 208 202
3 202 208 203
3 263 213 264
3 264 213 265
3 264 265 266
3 266 265 36
3 266 36 38
3 211 213 263
3 213 215 265
3 265 215 34
3 265 34 36
3 32 34 215
3 31 205 33
3 33 205 191
3 33 191 35
3 267 268 203
3 203 268 269
3 203 269 188
3 188 269 270
3 188 270 271
3 203 208 267
3 267 208 210
3 263 264 272
3 272 264 273
3 264 266 273
3 273 266 274
3 274 266 275
3 275 266 38
3 275 38 40
3 271 276 190
3 190 276 277
3 190 277 192
3 192 277 278
3 192 278 37
3 37 278 39
3 271 190 188
3 0 2 279
3 279 2 4
3 279 4 87
3 87 4 6
3 87 6 89
3 89 6 8
3 89 8 91
3 91 8 10
3 91 10 93
3 93 10 12
3 93 12 95
3 95 12 14
3 63 78 74
3 74 78 80
3 74 80 75
3 75 80 280
3 75 280 77
3 77 280 11
3 0 279 87
3 62 76 7
3 7 76 9
3 116 117 281
3 281 117 86
3 281 86 88
3 80 282 280
3 280 282 283
3 280 283 11
3 11 283 13
3 282 284 285
3 285 284 286
3 285 286 287
3 287 286 113
3 287 113 288
3 288 113 70
3 288 70 72
3 282 82 284
3 284 82 112
3 284 112 286
3 286 112 113
3 82 282 80
3 289 115 290
3 290 115 116
3 290 116 291
3 291 116 281
3 291 281 88
3 115 289 114
3 114 289 122
3 122 289 292
3 292 289 293
3 292 293 294
3 294 293 295
3 294 295 296
3 296 295 297
3 296 297 298
3 298 297 252
3 298 252 250
3 122 292 131
3 131 292 299
3 131 299 193
3 193 299 300
3 193 300 301
3 301 300 302
3 301 302 303
3 303 302 298
3 303 298 304
3 304 298 248
3 304 248 305
3 305 248 246
3 305 246 306
3 306 246 307
3 306 307 171
3 171 307 169
3 71 196 73
3 73 196 197
3 73 197 308
3 308 197 199
3 308 199 309
3 309 199 27
3 309 27 25
3 69 196 71
3 193 301 194
3 194 301 195
3 301 303 195
3 195 303 136
3 135 137 217
3 217 137 139
3 217 139 219
3 219 139 141
3 219 141 221
3 221 141 143
3 221 143 223
3 223 143 225
3 212 218 214
3 214 218 310
3 214 310 216
3 216 310 311
3 216 311 30
3 30 311 28
3 218 220 310
3 310 220 312
3 310 312 311
3 311 312 313
3 311 313 28
3 28 313 314
3 28 314 26
3 26 314 315
3 26 315 316
3 316 315 317
3 316 317 318
3 318 317 319
3 318 319 320
3 320 319 321
3 320 321 322
3 322 321 257
3 322 257 259
3 291 88 323
3 323 88 90
3 323 90 324
3 324 90 92
3 324 92 262
3 282 285 283
3 283 285 287
3 283 287 13
3 13 287 288
3 13 288 15
3 15 288 17
3 289 290 293
3 293 290 291
3 293 291 325
3 325 291 326
3 325 326 295
3 295 326 327
3 295 327 328
3 328 327 329
3 328 329 256
3 256 329 330
3 256 330 258
3 258 330 260
3 291 323 326
3 326 323 324
3 326 324 331
3 331 324 262
3 331 262 330
3 330 262 260
3 325 295 293
3 326 331 327
3 327 331 329
3 294 296 299
3 299 296 300
3 292 294 299
3 295 328 297
3 297 328 252
3 72 17 288
3 300 296 302
3 302 296 298
3 73 308 19
3 19 308 21
3 25 23 309
3 309 23 308
3 308 23 21
3 303 332 136
3 136 332 138
3 332 303 333
3 333 303 304
3 333 304 305
3 333 334 332
3 332 334 140
3 332 140 138
3 333 335 334
3 334 335 336
3 334 336 140
3 140 336 142
3 220 222 312
3 312 222 337
3 312 337 313
3 313 337 314
3 222 224 337
3 337 224 338
3 337 338 314
3 314 338 339
3 314 339 315
3 315 339 340
3 315 340 317
3 317 340 341
3 317 341 319
3 319 341 342
3 319 342 343
3 343 342 344
3 343 344 345
3 345 344 346
3 345 346 347
3 347 346 348
3 347 348 257
3 257 348 255
3 329 331 330
3 94 96 261
3 261 96 349
3 261 349 259
3 259 349 350
3 259 350 322
3 322 350 320
3 96 97 351
3 351 97 352
3 351 352 353
3 353 352 354
3 353 354 355
3 355 354 356
3 355 356 318
3 318 356 316
3 252 328 254
3 254 328 256
3 354 352 18
3 18 352 97
3 18 20 354
3 354 20 356
3 250 248 298
3 20 22 356
3 356 22 316
3 22 24 316
3 316 24 26
3 246 244 307
3 307 244 167
3 307 167 169
3 335 333 306
3 306 333 305
3 357 358 226
3 226 358 224
3 339 358 340
3 340 358 357
3 340 357 341
3 341 357 228
3 341 228 342
3 342 228 230
3 342 230 344
3 344 230 232
3 344 232 346
3 346 232 359
3 346 359 348
3 348 359 360
3 348 360 255
3 255 360 361
3 255 361 253
3 253 361 362
3 253 362 251
3 251 362 249
3 336 335 173
3 173 335 306
3 173 306 171
3 142 336 175
3 175 336 173
3 175 144 142
3 143 145 225
3 225 145 147
3 225 147 363
3 363 147 149
3 363 149 229
3 229 149 364
3 229 364 231
3 231 364 365
3 231 365 233
3 233 365 366
3 233 366 235
3 235 366 237
3 224 358 338
3 338 358 339
3 96 351 349
3 349 351 353
3 349 353 350
3 350 353 355
3 350 355 320
3 320 355 318
3 345 347 321
3 321 347 257
3 241 243 367
3 367 243 247
3 367 247 362
3 362 247 249
3 367 362 368
3 368 362 361
3 368 361 369
3 369 361 360
3 369 360 359
3 345 321 343
3 343 321 319
3 161 163 242
3 242 163 165
3 242 165 244
3 244 165 167
3 247 243 245
3 357 226 228
3 164 370 166
3 166 370 371
3 166 371 170
3 170 371 372
3 170 372 373
3 373 372 374
3 373 374 375
3 375 374 376
3 375 376 377
3 377 376 378
3 377 378 379
3 379 378 380
3 379 380 381
3 381 380 382
3 381 382 148
3 148 382 150
3 225 363 227
3 227 363 229
3 372 371 383
3 383 371 384
3 383 384 385
3 385 384 386
3 385 386 387
3 387 386 388
3 387 388 389
3 389 388 390
3 389 390 391
3 391 390 392
3 391 392 154
3 154 392 156
3 170 168 166
3 170 373 172
3 172 373 393
3 172 393 174
3 174 393 394
3 174 394 381
3 381 394 379
3 174 381 176
3 176 381 148
3 176 148 146
3 372 383 374
3 374 383 395
3 374 395 376
3 376 395 387
3 376 387 389
3 373 375 393
3 393 375 377
3 393 377 394
3 394 377 379
3 241 367 240
3 240 367 239
3 239 367 238
3 238 367 368
3 238 368 236
3 236 368 369
3 236 369 234
3 234 369 359
3 234 359 232
3 164 162 396
3 396 162 397
3 396 397 398
3 398 397 399
3 398 399 388
3 388 399 390
3 364 151 365
3 365 151 153
3 365 153 366
3 366 153 155
3 366 155 237
3 237 155 157
3 164 396 370
3 370 396 400
3 370 400 384
3 384 400 386
3 149 151 364
3 371 370 384
3 383 385 395
3 395 385 387
3 162 160 397
3 397 160 158
3 397 158 399
3 399 158 392
3 399 392 390
3 156 392 158
3 400 398 386
3 386 398 388
3 396 398 400
3 154 152 391
3 391 152 382
3 391 382 380
3 380 378 389
3 389 378 376
3 380 389 391
3 150 382 152
